<?xml version="1.0" standalone="no"?>
<!DOCTYPE svg PUBLIC "-//W3C//DTD SVG 20010904//EN"
 "http://www.w3.org/TR/2001/REC-SVG-20010904/DTD/svg10.dtd">
<svg version="1.0" xmlns="http://www.w3.org/2000/svg"
 width="1024.000000pt" height="1024.000000pt" viewBox="0 0 1024.000000 1024.000000"
 preserveAspectRatio="xMidYMid meet">
<metadata>
Created by potrace 1.14, written by Peter Selinger 2001-2017
</metadata>
<g transform="translate(0.000000,1024.000000) scale(0.100000,-0.100000)"
fill="#000000" stroke="none">
<path d="M4575 9794 c-670 -35 -1044 -85 -1493 -198 -587 -149 -1126 -432
-1496 -786 -656 -627 -1012 -1530 -1136 -2875 -34 -377 -43 -662 -37 -1212 6
-572 17 -776 83 -1538 49 -574 266 -2680 277 -2691 4 -5 1131 -55 1133 -51 0
1 84 164 186 362 102 198 202 396 222 439 94 205 175 251 483 275 154 12 5362
175 5369 168 3 -2 73 -225 156 -496 l151 -491 36 5 c20 3 313 28 651 56 338
28 616 52 618 53 1 2 12 172 24 377 19 332 22 479 22 1324 1 980 -5 1195 -44
1755 -91 1270 -314 2332 -642 3060 -291 646 -708 1173 -1256 1587 -649 491
-1468 774 -2487 858 -168 14 -684 26 -820 19z m825 -2702 c367 -59 627 -141
937 -293 617 -304 1122 -779 1502 -1411 l52 -87 -67 -133 c-125 -250 -235
-430 -372 -611 -532 -705 -1287 -1161 -2127 -1286 -569 -85 -1135 -31 -1635
158 -736 277 -1337 792 -1762 1509 l-67 114 44 94 c262 561 707 1079 1230
1433 408 276 828 439 1315 511 187 27 198 28 530 25 236 -3 320 -7 420 -23z"/>
<path d="M4650 6320 c-107 -23 -156 -41 -248 -90 -280 -152 -491 -452 -559
-798 -25 -130 -22 -375 6 -512 53 -252 144 -430 305 -598 259 -271 638 -373
1004 -272 360 100 637 415 724 824 28 134 31 407 4 540 -79 403 -327 728 -656
862 -157 64 -402 83 -580 44z"/>
</g>
</svg>
