<?xml version="1.0" encoding="UTF-8" standalone="no"?><!DOCTYPE svg PUBLIC "-//W3C//DTD SVG 1.1//EN" "http://www.w3.org/Graphics/SVG/1.1/DTD/svg11.dtd"><svg width="100%" height="100%" viewBox="0 0 700 500" version="1.1" xmlns="http://www.w3.org/2000/svg" xmlns:xlink="http://www.w3.org/1999/xlink" xml:space="preserve" xmlns:serif="http://www.serif.com/" style="fill-rule:evenodd;clip-rule:evenodd;stroke-linejoin:round;stroke-miterlimit:2;"><g id="Dungeon-Keys-2" serif:id="Dungeon Keys 2"><path d="M240.795,156.587c-15.659,-0.099 -30.081,-0.843 -43.267,-2.231l-0.955,-20.885l15.903,-4.249l0.524,-82.86c0.024,-3.77 -0.25,-6.273 -0.823,-7.509c-0.572,-1.236 -2.087,-2.369 -4.545,-3.4l-11.27,-6.378l1.419,-18.043c15.086,-1.064 27.778,-1.89 38.077,-2.478c10.298,-0.587 18.564,-0.861 24.799,-0.822c20.008,0.127 36.05,2.548 48.127,7.264c12.078,4.716 20.876,12.094 26.394,22.133c5.519,10.04 8.226,23.323 8.122,39.852c-0.132,20.878 -5.023,37.739 -14.674,50.582c-8.625,11.11 -20.019,18.759 -34.182,22.947c-14.163,4.188 -32.046,6.213 -53.649,6.077Zm27.599,-30.927c12.178,0.077 21.829,-1.312 28.952,-4.167c1.328,-3.616 2.56,-9.263 3.696,-16.94c1.135,-7.678 1.725,-14.851 1.767,-21.521c0.103,-16.383 -3.191,-28.511 -9.884,-36.383c-6.692,-7.872 -16.925,-11.851 -30.699,-11.938c-1.885,-0.012 -3.625,0.049 -5.221,0.184c-1.596,0.135 -3.119,0.271 -4.57,0.406l-0.563,89.167c5.795,0.762 11.302,1.159 16.522,1.192Z" style="fill:#eb5e28;fill-rule:nonzero;"/><path d="M220.369,79.084c0.056,15.274 4.688,28.83 13.897,40.667c9.209,11.837 21.135,20.305 35.778,25.405c14.399,-5.205 26.212,-13.76 35.438,-25.663c9.225,-11.904 13.81,-25.493 13.755,-40.768c-0.055,-15.091 -4.738,-28.555 -14.05,-40.391c-9.312,-11.837 -21.187,-20.397 -35.624,-25.682c-14.605,5.39 -26.469,14.037 -35.592,25.94c-9.122,11.904 -13.656,25.401 -13.602,40.492Z" style="fill:#eb5e28;fill-rule:nonzero;"/><clipPath id="_clip1"><path d="M220.369,79.084c0.056,15.274 4.688,28.83 13.897,40.667c9.209,11.837 21.135,20.305 35.778,25.405c14.399,-5.205 26.212,-13.76 35.438,-25.663c9.225,-11.904 13.81,-25.493 13.755,-40.768c-0.055,-15.091 -4.738,-28.555 -14.05,-40.391c-9.312,-11.837 -21.187,-20.397 -35.624,-25.682c-14.605,5.39 -26.469,14.037 -35.592,25.94c-9.122,11.904 -13.656,25.401 -13.602,40.492Z" clip-rule="nonzero"/></clipPath><g clip-path="url(#_clip1)"><path d="M238.907,79.016c-0.037,-10.121 2.659,-19.425 8.086,-27.91c5.428,-8.486 12.973,-15.138 22.637,-19.958c9.492,4.75 17.034,11.348 22.626,19.793c5.592,8.446 8.407,17.729 8.443,27.851c0.038,10.306 -2.709,19.702 -8.239,28.187c-5.531,8.486 -13.025,15.139 -22.482,19.958c-9.699,-4.75 -17.292,-11.348 -22.781,-19.793c-5.489,-8.446 -8.253,-17.822 -8.29,-28.128Z" style="fill:#fffcf2;fill-rule:nonzero;"/><clipPath id="_clip2"><path d="M238.907,79.016c-0.037,-10.121 2.659,-19.425 8.086,-27.91c5.428,-8.486 12.973,-15.138 22.637,-19.958c9.492,4.75 17.034,11.348 22.626,19.793c5.592,8.446 8.407,17.729 8.443,27.851c0.038,10.306 -2.709,19.702 -8.239,28.187c-5.531,8.486 -13.025,15.139 -22.482,19.958c-9.699,-4.75 -17.292,-11.348 -22.781,-19.793c-5.489,-8.446 -8.253,-17.822 -8.29,-28.128Z" clip-rule="nonzero"/></clipPath><g clip-path="url(#_clip2)"><path d="M251.265,78.972c-0.016,-4.601 1.72,-8.518 5.21,-11.752c3.49,-3.233 7.913,-4.859 13.268,-4.879c5.149,-0.018 9.532,1.576 13.148,4.783c3.617,3.208 5.433,7.112 5.45,11.713c0.017,4.785 -1.771,8.748 -5.364,11.89c-3.593,3.141 -7.964,4.722 -13.114,4.74c-5.355,0.02 -9.789,-1.529 -13.302,-4.644c-3.513,-3.116 -5.278,-7.067 -5.296,-11.851Z" style="fill:#403d39;fill-rule:nonzero;"/></g></g><path d="M419.558,149.178c-19.254,-0.121 -33.335,-5.286 -42.243,-15.494c-8.909,-10.208 -13.294,-26.183 -13.157,-47.926l0.245,-38.705c0.022,-3.406 -0.193,-5.667 -0.645,-6.783c-0.451,-1.116 -1.722,-2.14 -3.812,-3.07l-6.263,-3.772l0.713,-19.644l61.3,0.387l0.859,19.457l-16.335,4.416l-0.255,40.277c-0.086,13.622 1.811,24.375 5.691,32.259c3.879,7.884 10.6,11.856 20.162,11.916c3.144,0.02 6.192,-0.419 9.145,-1.317c2.953,-0.898 5.482,-2.127 7.587,-3.685c1.329,-3.005 2.272,-7.027 2.827,-12.066c0.556,-5.04 0.861,-11.816 0.915,-20.33l0.237,-37.527c0.021,-3.405 -0.226,-5.666 -0.743,-6.783c-0.517,-1.117 -1.886,-2.14 -4.107,-3.071l-9.592,-5.562l1.095,-17.873l58.353,0.368l0.848,21.226l-10.234,2.686l-0.281,44.403c-0.133,21.088 -5.639,37.427 -16.519,49.016c-10.88,11.589 -26.143,17.321 -45.791,17.197Z" style="fill:#fffcf2;fill-rule:nonzero;"/><path d="M539.325,69.349l2.174,51.539c0.063,3.015 0.345,4.987 0.849,5.915c0.503,0.929 1.659,1.937 3.469,3.026l10.058,7.107l-1.159,16.482l-51.071,-1.156l-0.498,-21.433l10.665,-2.314l2.538,-77.374c0.056,-2.488 -0.102,-4.195 -0.474,-5.121c-0.372,-0.925 -1.265,-1.993 -2.679,-3.205l-7.143,-5.664l1.766,-17.255l40.661,0.921l57.6,77.36l-1.758,-43.865c-0.06,-3.146 -0.342,-5.183 -0.845,-6.112c-0.503,-0.928 -1.659,-1.937 -3.469,-3.026l-10.063,-6.91l0.963,-16.487l50.678,1.148l0.332,20.053l-10.115,4.094l-3.191,106.25l-22.759,6.953l-66.529,-90.926Z" style="fill:#fffcf2;fill-rule:nonzero;"/><path d="M108.725,315.121c-22.098,1.298 -39.047,-3.545 -50.845,-14.53c-11.798,-10.985 -18.369,-27.919 -19.713,-50.802c-0.821,-13.991 1.151,-26.211 5.917,-36.66c4.766,-10.448 12.091,-18.653 21.975,-24.613c9.885,-5.96 21.822,-9.351 35.814,-10.173c16.998,-0.998 33.739,1.43 50.222,7.285c-0.57,12.63 -1.664,25.29 -3.28,37.981l-14.849,1.856l-13.417,-17.319c-6.676,-1.969 -14.852,-2.67 -24.528,-2.102c-4.577,0.269 -10.042,1.049 -16.396,2.341c-2.123,4.061 -3.646,9.399 -4.57,16.014c-0.923,6.614 -1.163,13.714 -0.717,21.298c0.883,15.037 4.549,26.073 10.998,33.108c6.449,7.035 16.019,10.245 28.71,9.631c3.138,-0.185 7.111,-0.68 11.919,-1.488l-0.841,-14.318c-0.154,-2.615 -0.45,-4.303 -0.888,-5.065c-0.439,-0.761 -1.604,-1.611 -3.496,-2.55l-7.672,-3.289l0.001,-13.384l4.465,-1.049c1.423,-0.346 6.475,-1.463 15.155,-3.35c8.68,-1.888 15.955,-3.135 21.824,-3.742c1.453,2.407 2.599,5.161 3.437,8.261l3.018,51.389c-7.361,4.237 -15.62,7.707 -24.778,10.41c-9.157,2.703 -18.312,4.323 -27.465,4.86Z" style="fill:#fffcf2;fill-rule:nonzero;"/><path d="M170.935,288.511l14.367,-3.839l0.476,-75.249c0.021,-3.406 -0.226,-5.667 -0.743,-6.783c-0.517,-1.117 -1.886,-2.141 -4.107,-3.072l-9.788,-5.76l0.702,-17.679l106.685,0.675c0.83,13.758 1.203,27.187 1.12,40.285l-14.545,0.891l-13.84,-17.378l-29.663,-0.973l-0.202,32.025l41.871,-3.272l-0.191,30.257l-41.82,-4.784l-0.2,31.633l32.618,-0.384l15.238,-17.194l14.533,1.074c-0.611,13.75 -1.678,27.17 -3.202,40.259l-108.453,-0.685l-0.856,-20.047Z" style="fill:#fffcf2;fill-rule:nonzero;"/><path d="M362.269,314.293c-24.067,-0.152 -41.971,-6.355 -53.711,-18.609c-11.739,-12.253 -17.53,-30.776 -17.374,-55.569c0.102,-16.094 3.162,-30.03 9.181,-41.809c6.02,-11.779 14.559,-20.823 25.618,-27.133c11.059,-6.31 24.201,-9.416 39.425,-9.32c48.425,0.306 72.482,25.179 72.169,74.62c-0.102,16.238 -3.163,30.211 -9.181,41.917c-6.019,11.706 -14.666,20.641 -25.942,26.805c-11.276,6.163 -24.671,9.196 -40.185,9.098Zm4.757,-29.984c8.264,0.053 16.18,-2 23.745,-6.157c1.624,-4.484 2.892,-10.095 3.804,-16.831c0.913,-6.736 1.389,-13.367 1.431,-19.891c0.101,-16.094 -2.83,-28.292 -8.795,-36.594c-5.965,-8.302 -14.747,-12.49 -26.345,-12.563c-8.265,-0.053 -16.249,1.419 -23.952,4.416c-1.612,2.744 -2.873,7.267 -3.783,13.569c-0.91,6.301 -1.391,13.512 -1.442,21.631c-0.106,16.818 2.857,29.741 8.89,38.769c6.032,9.028 14.848,13.578 26.447,13.651Z" style="fill:#eb5e28;fill-rule:nonzero;"/><path d="M481.67,226.915l6.302,51.936c0.303,3.043 0.746,5.014 1.329,5.913c0.582,0.898 1.832,1.826 3.748,2.783l10.736,6.384l0.14,16.756l-51.727,2.898l-2.209,-21.63l10.598,-3.188l-3.595,-78.431c-0.142,-2.52 -0.437,-4.233 -0.887,-5.139c-0.45,-0.906 -1.438,-1.915 -2.964,-3.027l-7.673,-5.158l0.412,-17.586l41.183,-2.307l64.396,73.628l-5.271,-44.21c-0.311,-3.176 -0.758,-5.213 -1.34,-6.112c-0.583,-0.898 -1.832,-1.826 -3.749,-2.783l-10.724,-6.185l-0.339,-16.745l51.329,-2.876l1.932,20.249l-9.901,4.945l5.234,107.676l-22.456,8.842l-74.504,-86.633Z" style="fill:#fffcf2;fill-rule:nonzero;"/><path d="M337.265,464.338l8.419,-4.249l0.526,-85.37c-0.885,-59.282 0.206,-61.321 -4.672,-62.401l-1.08,-2.074l47.2,0.768c-0,-0 -0.322,0.143 -0.739,0.328c-1.123,0.498 -1.846,1.613 -1.842,2.842c0.025,8.057 0.114,37.431 0.114,37.431l32.926,0.127c7.119,17.077 12.783,22.109 26.344,43.117l-28.379,-1.007l-15.32,-19.236l-14.931,-1.078l-0.224,30.631l59.601,3.757l-0.246,17.721l-59.51,3.097l0.848,31.213l15.076,-0.473l15.306,-18.984l27.922,2.064c-9.881,16.435 -15.947,23.074 -28.317,42.65l-65.813,-0.625l-12.262,-0.134l-0.947,-20.115Z" style="fill:#eb5e28;fill-rule:nonzero;"/><path d="M182.63,460.872l13.898,-2.872l4.978,-83.147c0.225,-3.763 0.121,-6.275 -0.312,-7.536c-0.432,-1.26 -1.776,-2.466 -4.031,-3.618l-8.807,-5.756l1.886,-20.585l67.734,4.055l-0.24,22.208l-16.325,3.381l-2.443,40.814l40.448,-38.757c0.614,-0.544 0.951,-1.323 1.011,-2.336c0.044,-0.724 -0.134,-1.388 -0.534,-1.993l-5.841,-7.975l3.246,-14.186l50.366,3.016l1.722,14.918l-52.9,50.212l49.082,71.787l-0.585,9.769l-41.466,-2.482l-45.368,-68.296l-1.807,30.176c-0.19,3.184 -0.067,5.37 0.37,6.558c0.437,1.189 1.707,2.427 3.808,3.714l11.117,7.202l-1.986,18.618l-67.3,-4.029l0.279,-22.86Z" style="fill:#fffcf2;fill-rule:nonzero;"/><path d="M461.111,454.701l17.186,-4.679l0.167,-26.333l-36.137,-58.68l-9.105,-11.429l0.886,-13.959l58.45,0.369l1.875,18.964l-12.989,3.509l20.722,35.641l17.541,-29.215c0.537,-0.928 0.809,-1.857 0.815,-2.788c0.009,-1.463 -0.782,-2.532 -2.373,-3.207l-11.538,-5.259l1.507,-17.547l50.271,0.318l1.278,18.761l-8.01,4.737l-37.046,53.63l-0.156,24.736c-0.02,3.192 0.2,5.255 0.659,6.189c0.46,0.934 1.618,1.872 3.474,2.815l12.321,7.459l-0.899,15.954l-68.025,-0.43l-0.874,-19.556Z" style="fill:#fffcf2;fill-rule:nonzero;"/><path d="M606.192,478.875c-14.087,0.432 -26.039,-1.396 -40.644,-5.306c0.251,-12.699 -1.48,-24.424 -0.405,-35.353l14.703,-3.335l10.106,16.034c7.767,2.454 14.596,3.591 20.487,3.41c2.049,-0.063 6.386,-0.773 13.01,-2.13c0.177,-2.569 0.252,-4.302 0.225,-5.198c-0.094,-3.074 -0.678,-5.395 -1.752,-6.965c-1.074,-1.569 -3.37,-3.294 -6.888,-5.173c-3.519,-1.879 -9.822,-4.666 -18.908,-8.361c-11.179,-5.041 -19.297,-10.592 -24.354,-16.655c-5.057,-6.062 -7.716,-13.319 -7.975,-21.771c-0.404,-13.191 3.762,-23.638 12.499,-31.341c8.737,-7.703 20.917,-11.794 36.542,-12.273c7.556,-0.232 15.102,0.273 22.64,1.516c7.537,1.243 14.162,3.059 19.876,5.448c-0.036,7.179 -0.34,16.098 -0.91,26.755l-0.323,8.278l-13.959,2.543l-15.171,-18.186c-4.654,-1.267 -10.439,-1.795 -17.354,-1.583c-4.355,0.134 -7.609,0.618 -9.762,1.453c-0.562,2.581 -0.821,4.576 -0.778,5.985c0.086,2.818 0.866,5.261 2.34,7.331c1.474,2.07 4.038,4.171 7.692,6.302c3.655,2.131 9.055,4.754 16.201,7.867c10.395,4.553 18.275,8.605 23.639,12.158c5.365,3.553 9.166,7.314 11.403,11.284c2.236,3.969 3.443,8.835 3.62,14.598c0.389,12.679 -4.364,22.824 -14.257,30.434c-9.894,7.61 -23.741,11.688 -41.543,12.234Z" style="fill:#fffcf2;fill-rule:nonzero;"/></g></svg>